PathFileType  4	(X/Y/Z) C:\Users\antoi\Documents\MyRepositories\mobilecap\ResultsAnalysis
DataRate	CameraRate	NumFrames	NumMarkers	Units	OrigDataRate	OrigDataStartFrame	OrigNumFrames
100.0	100.0	4	55	mm	100.0	63	502
Frame#	Time	r_knee			r_shank_antsup			r_ankle			r_calc			r_5meta			r_toe			L_knee			L_shank_antsup			L_ankle			L_calc			L_5meta			L_toe			r_mknee			r_mankle			L_mknee			L_mankle			r_sh2			r_sh3			r_sh4			L_sh2			L_sh3			r_thigh1			r_thigh2			r_thigh3			r_thigh4			r_thigh5			L_thigh1			L_thigh2			L_thigh3			L_thigh4			r.ASIS			r.PSIS			L.ASIS			L.PSIS			C7			R_Shoulder			L_Shoulder			R_Sternum			L_Sternum			R_humerus			R_elbow_med			R_elbow_lat			R_forearm			R_wrist_radius			R_wrist_ulna			L_humerus			L_elbow_med			L_elbow_lat			L_forearm			L_wrist_radius			L_wrist_ulna			R_HJC			L_HJC			R_HJC_reg			L_HJC_reg			
		X1	Y1	Z1	X2	Y2	Z2	X3	Y3	Z3	X4	Y4	Z4	X5	Y5	Z5	X6	Y6	Z6	X7	Y7	Z7	X8	Y8	Z8	X9	Y9	Z9	X10	Y10	Z10	X11	Y11	Z11	X12	Y12	Z12	X13	Y13	Z13	X14	Y14	Z14	X15	Y15	Z15	X16	Y16	Z16	X17	Y17	Z17	X18	Y18	Z18	X19	Y19	Z19	X20	Y20	Z20	X21	Y21	Z21	X22	Y22	Z22	X23	Y23	Z23	X24	Y24	Z24	X25	Y25	Z25	X26	Y26	Z26	X27	Y27	Z27	X28	Y28	Z28	X29	Y29	Z29	X30	Y30	Z30	X31	Y31	Z31	X32	Y32	Z32	X33	Y33	Z33	X34	Y34	Z34	X35	Y35	Z35	X36	Y36	Z36	X37	Y37	Z37	X38	Y38	Z38	X39	Y39	Z39	X40	Y40	Z40	X41	Y41	Z41	X42	Y42	Z42	X43	Y43	Z43	X44	Y44	Z44	X45	Y45	Z45	X46	Y46	Z46	X47	Y47	Z47	X48	Y48	Z48	X49	Y49	Z49	X50	Y50	Z50	X51	Y51	Z51	X52	Y52	Z52	X53	Y53	Z53	X54	Y54	Z54	X55	Y55	Z55	

63	0.62000000	-271.57357	541.93150	-447.29051	-247.24951	465.88438	-433.74051	-289.28170	101.73563	-442.88908	-349.65832	52.06030	-483.40365	-144.85410	37.91656	-410.47800	-113.47651	62.18261	-472.12966	-266.62119	542.37068	-769.39276	-240.15408	425.44038	-779.35040	-297.44970	99.63321	-758.36395	-364.16652	52.71757	-717.14814	-144.73110	33.99958	-792.15613	-119.73587	59.69784	-726.88810	-270.78596	535.30256	-570.65032	-263.52516	115.39881	-533.86831	-270.78161	543.54895	-642.51599	-270.50455	114.83109	-666.29320	-245.05043	353.44908	-421.76526	-320.77511	466.12933	-410.92609	-325.42999	350.32082	-407.76724	-327.33491	437.76631	-798.07856	-329.23339	316.38960	-796.41410	-189.71705	860.08366	-430.28433	-184.19058	748.85478	-441.56488	-236.16093	719.07652	-411.93802	-303.50938	848.89595	-423.88577	-289.63275	732.01552	-423.01334	-179.30333	864.75815	-787.19611	-180.43542	725.35353	-783.13256	-299.15346	860.55480	-802.67259	-288.86153	720.92167	-795.67740	-163.31347	1048.97739	-477.80111	-348.99663	1107.99656	-565.17705	-154.30784	1046.63877	-741.68670	-345.67666	1109.29123	-669.48197	-356.94282	1606.23424	-623.12425	-293.08800	1568.47147	-445.27822	-294.60081	1583.32155	-782.49188	-203.56904	1552.42462	-589.39227	-201.13126	1549.61963	-642.92044	-301.53290	1294.59137	-363.07710	-334.71199	1205.10869	-438.46060	-321.36795	1208.54177	-356.55057	-251.29578	1065.42870	-338.42976	-204.21460	959.70213	-345.82859	-247.33571	955.86596	-332.86679	-278.47077	1321.59229	-868.59745	-326.51333	1233.21390	-812.43339	-296.72105	1234.75488	-873.52937	-234.37415	1074.92578	-884.87507	-195.91044	982.78149	-871.04081	-230.62352	974.24100	-888.55637	-256.24079	979.68075	-490.36801	-245.72519	978.35694	-720.49209	-243.19954	977.43335	-518.81204	-237.65575	979.59522	-692.98313	
64	0.63000000	-271.66285	541.80979	-447.36112	-247.23854	465.81997	-433.64033	-289.34683	101.60444	-442.84447	-349.65789	52.02925	-483.36731	-144.86543	37.86279	-410.45022	-113.48188	62.11704	-472.09529	-266.57592	542.37486	-769.50233	-240.11460	425.41131	-779.34932	-297.46357	99.62259	-758.38896	-364.38856	52.71681	-717.19252	-144.72408	33.99714	-792.12513	-119.73520	59.67972	-726.88156	-270.73411	535.22645	-570.60015	-263.52890	115.37467	-533.86358	-270.77793	543.54203	-642.51115	-270.52440	114.77174	-666.27005	-245.06105	353.40154	-421.74221	-320.74458	466.09641	-410.90839	-325.42194	350.27591	-407.72564	-327.29240	437.75204	-798.07134	-329.21714	316.36393	-796.43572	-188.88939	859.51275	-430.20694	-184.20389	748.84017	-441.56235	-236.17768	718.96701	-411.94209	-303.52601	848.84425	-423.84854	-289.62336	731.94642	-422.97977	-179.31596	864.72320	-787.21056	-180.42662	725.35037	-783.12038	-299.14582	860.53898	-802.68268	-288.83015	720.87910	-795.61272	-163.33947	1048.94167	-477.74005	-348.98374	1107.95600	-565.12873	-154.30077	1046.63137	-741.64528	-345.67086	1109.23938	-669.45111	-356.97883	1606.21057	-623.13086	-293.13060	1568.42411	-445.28015	-294.61258	1583.29788	-782.52379	-203.60452	1552.41537	-589.37149	-201.16987	1549.62161	-642.91117	-301.58923	1294.60024	-362.91993	-334.74714	1205.09608	-438.48402	-321.38653	1208.53207	-356.46319	-251.33826	1065.39532	-338.29028	-204.25635	959.70278	-345.72922	-247.39575	955.84378	-332.82718	-278.47928	1321.58688	-868.59771	-326.56673	1233.16953	-812.41565	-296.69544	1234.68562	-873.40942	-234.37777	1074.87199	-884.79758	-195.88203	982.68422	-870.83812	-230.61694	974.23785	-888.53270	-256.24316	979.63720	-490.33040	-245.70587	978.33189	-720.45358	-243.20478	977.42134	-518.74018	-237.67333	979.56416	-692.92543	
65	0.64000000	-271.66917	541.82113	-447.34850	-247.21969	465.86947	-433.50185	-289.34600	101.57564	-442.87075	-349.67135	52.02924	-483.41150	-144.89422	37.86122	-410.42765	-113.49073	62.03509	-472.15318	-266.55301	542.28277	-769.51878	-240.11178	425.33134	-779.33907	-297.47380	99.53032	-758.45283	-364.53912	52.69123	-717.30635	-144.72784	33.93166	-792.12322	-119.72584	59.65243	-726.91840	-270.73605	535.27238	-570.54632	-263.54165	115.26326	-533.87892	-270.79904	543.51185	-642.47257	-270.52563	114.79162	-666.27197	-245.11371	353.38226	-421.73345	-320.75416	466.09487	-410.90217	-325.39445	350.31717	-407.71663	-327.23062	437.63451	-798.05305	-329.19008	316.28986	-796.45430	-188.87310	859.54447	-430.19325	-184.18729	748.80680	-441.53083	-236.20837	718.98460	-411.90343	-303.52636	848.86811	-423.82193	-289.61495	731.94172	-422.90870	-179.28547	864.75950	-787.17246	-180.44368	725.29544	-783.08239	-299.13646	860.43806	-802.69788	-288.79323	720.78886	-795.59730	-163.38039	1048.96000	-477.70164	-349.00000	1107.92298	-565.14495	-154.28401	1046.54494	-741.59844	-345.67365	1109.19573	-669.46906	-357.00620	1606.16661	-623.22252	-293.14656	1568.44190	-445.26430	-294.62100	1583.22009	-782.55671	-203.65515	1552.42593	-589.45856	-201.20673	1549.61305	-642.97429	-301.61345	1294.65211	-362.83481	-334.73461	1205.07957	-438.50465	-321.41240	1208.56323	-356.36595	-251.37217	1065.41797	-338.12249	-204.25068	959.75180	-345.59189	-247.41438	955.88237	-332.80067	-278.47617	1321.51522	-868.60573	-326.60625	1233.11614	-812.43599	-296.68043	1234.56586	-873.34585	-234.37534	1074.79812	-884.76080	-195.89095	982.53032	-870.65500	-230.59986	974.16350	-888.49864	-256.27856	979.64497	-490.28311	-245.69418	978.25757	-720.40365	-243.21464	977.38271	-518.70277	-237.66087	979.50772	-692.88390	
66	0.65000000	-271.57960	542.00756	-447.27459	-247.21557	465.94859	-433.49065	-289.31301	101.62250	-442.91610	-349.69017	52.07869	-483.54919	-144.92102	37.92034	-410.40104	-113.48944	61.98007	-472.28675	-266.56110	542.11490	-769.43177	-240.12503	425.21179	-779.34251	-297.45652	99.37779	-758.53428	-364.50373	52.60628	-717.42454	-144.74418	33.79549	-792.17317	-119.75007	59.53236	-726.92285	-270.73170	535.32292	-570.50648	-263.56003	115.09899	-533.91473	-270.82952	543.51492	-642.44243	-270.49676	114.90722	-666.30677	-245.14656	353.35364	-421.71503	-320.80008	466.08686	-410.91364	-325.56595	350.45857	-407.92190	-327.18724	437.49584	-798.05381	-329.13149	316.18575	-796.44652	-189.67471	860.14747	-430.25471	-184.17560	748.79509	-441.49678	-236.25967	719.09346	-411.83020	-303.52088	848.92520	-423.80617	-289.62626	732.00321	-422.87041	-179.24503	864.85713	-787.10004	-180.47680	725.18690	-783.01498	-299.12185	860.26854	-802.68692	-288.77157	720.66157	-795.63903	-163.42298	1049.02472	-477.68197	-349.03978	1107.89735	-565.19742	-154.27871	1046.41550	-741.59137	-345.66910	1109.16418	-669.48602	-357.02445	1606.09841	-623.35082	-293.13011	1568.53201	-445.23634	-294.64173	1583.13191	-782.57066	-203.69756	1552.45245	-589.61372	-201.23945	1549.59475	-643.09282	-301.62147	1294.72826	-362.85677	-334.66040	1205.06219	-438.45326	-321.43021	1208.64924	-356.28397	-251.40216	1065.51180	-338.02062	-204.24514	959.83647	-345.45938	-247.44332	955.99459	-332.71375	-278.47746	1321.39024	-868.61738	-326.60567	1233.09285	-812.46707	-296.68718	1234.42774	-873.34095	-234.37582	1074.72645	-884.80903	-195.99158	982.58755	-870.80465	-230.59127	974.02853	-888.43643	-256.31806	979.69073	-490.23341	-245.70157	978.16075	-720.35158	-243.24257	977.31255	-518.71665	-237.61261	979.42852	-692.90609	
